<?xml version="1.0" encoding="utf-8"?>
<!-- Generator: Adobe Illustrator 18.1.0, SVG Export Plug-In . SVG Version: 6.00 Build 0)  -->
<svg version="1.1" id="Artwork" xmlns="http://www.w3.org/2000/svg" xmlns:xlink="http://www.w3.org/1999/xlink" x="0px" y="0px"
	 viewBox="0 0 720 720" enable-background="new 0 0 720 720" xml:space="preserve">
<path d="M532.2,547.6c-3.9-5.9-15.5-11.9-42.3-22c-26.4-9.9-42.8-22.8-57.7-46.4v-9.7c28.9-23.8,47.7-70.8,47.7-109.9
	c0-60.9-42.6-149-103.6-177.1c8.6-9.1,8.3-23.4-0.8-32c-9.1-8.6-23.4-8.3-32,0.8c-8.6,9.1-8.3,23.4,0.8,32c0.1,0.1,0.1,0.1,0.2,0.2
	c-6.9,3.8-13.5,8.1-19.7,13v150.7l-31-120.1c-32,38.9-53.8,91-53.8,132.5c0,39.1,18.7,86.1,47.7,109.9c0,3.9,0,7.8,0,11.8h-1.2
	c-14.6,22.2-30.7,34.7-56.4,44.3c-26.8,10.1-38.4,16-42.3,22c-2.9,4.4-7.2,24.1-7.2,28.2c0,0,360,0.1,358.9,0
	C539.3,571.7,535.1,552,532.2,547.6z M262.3,529.6h195.1c3.4-0.2,6.4,2.4,6.6,5.8c0.2,3.4-2.4,6.4-5.8,6.6c-0.3,0-0.5,0-0.8,0H262.3
	c-3.4-0.2-6-3.2-5.8-6.6C256.7,532.3,259.2,529.8,262.3,529.6L262.3,529.6z M494.5,564.6H225.2c-3.4-0.2-6-3.2-5.8-6.6
	c0.2-3.1,2.7-5.6,5.8-5.8h269.3c3.4,0.2,6,3.2,5.8,6.6C500.2,561.9,497.6,564.4,494.5,564.6L494.5,564.6z"/>
</svg>
