<?xml version="1.0" encoding="utf-8"?>
<!-- Generator: Adobe Illustrator 18.1.0, SVG Export Plug-In . SVG Version: 6.00 Build 0)  -->
<svg version="1.1" id="Artwork" xmlns="http://www.w3.org/2000/svg" xmlns:xlink="http://www.w3.org/1999/xlink" x="0px" y="0px"
	 viewBox="0 0 720 720" enable-background="new 0 0 720 720" xml:space="preserve">
<path d="M532.2,536.9c-3.9-5.9-15.5-11.9-42.3-22c-10.9-3.9-21.2-9.3-30.5-16.1c-10.9-8.4-20.2-18.7-27.3-30.5l0,0l0,0
	c-3.4-5.3-9-19.4-13.8-32.7c-7.2-19.8-11.6-40.5-13.1-61.5l-0.1-1.8c1.2-0.5,2.5-0.9,3.7-1.2c10.1-2.7,6.7-7.8,6.7-7.8
	s26.4-2.3,24.5-13.1c-0.5-10.7-18.7-13.5-18.7-13.5s4.4-10.5-19.2-12.9c-0.2-4.3-0.5-8.4-0.7-12c3.6-1.6,7-3.9,7-6.3
	c-0.2-4.2-7.4-3.3-6-6.2c0.9-2.3,1.7-4.8,2.1-7.2c22.9-13.6,34.7-37.3,34.7-64.3c0-42.2-33.7-73.1-79.4-73.1s-79.4,30.9-79.4,73.1
	c0,27,11.7,50.7,34.6,64.3c0.5,2.5,1.2,4.9,2.1,7.2c1.4,2.9-5.8,2-6,6.2c-0.1,2.3,3.3,4.7,7,6.3c-0.2,3.6-0.4,7.6-0.7,12
	c-23.6,2.3-19.2,12.9-19.2,12.9s-18.2,2.9-18.7,13.5c-1.9,10.7,24.5,13.1,24.5,13.1s-3.4,5.1,6.7,7.8c1.3,0.3,2.5,0.7,3.7,1.2v0.5
	c-1.5,21.9-6.2,43.5-13.8,64.1c-5.2,13.8-11,28.4-14.5,33.7c-6.9,10.9-15.7,20.5-26,28.3c-9.3,6.7-19.5,12.1-30.3,16
	c-26.8,10.1-38.4,16-42.3,22c-2.9,4.4-7.2,24.1-7.2,28.2c0,0,360,0.1,358.9,0C539.2,561,535,541.3,532.2,536.9z M287.2,470.6h-0.5
	C286.9,470.4,287.1,470.2,287.2,470.6z M262.2,518.5h195.1c3.4-0.2,6.4,2.4,6.6,5.8c0.2,3.4-2.4,6.4-5.8,6.6c-0.3,0-0.5,0-0.8,0
	H262.2c-3.4-0.2-6-3.2-5.8-6.6C256.6,521.2,259.1,518.7,262.2,518.5L262.2,518.5z M494.4,553.5H225.1c-3.4-0.2-6-3.2-5.8-6.6
	c0.2-3.1,2.7-5.6,5.8-5.8h269.3c3.4,0.2,6,3.2,5.8,6.6C500.1,550.8,497.6,553.3,494.4,553.5z"/>
</svg>
