<?xml version="1.0" encoding="utf-8"?>
<!-- Generator: Adobe Illustrator 18.1.0, SVG Export Plug-In . SVG Version: 6.00 Build 0)  -->
<svg version="1.1" id="Artwork" xmlns="http://www.w3.org/2000/svg" xmlns:xlink="http://www.w3.org/1999/xlink" x="0px" y="0px"
	 viewBox="0 0 720 720" enable-background="new 0 0 720 720" xml:space="preserve">
<path d="M510,448l19.8-19c31-29.6,45.2-50.9,49.6-74.5c5.7-31-15.4-67.5-48-83.1c-17.5-8.4-30-10.8-51.3-9.8
	c-12.7,0.3-25.3,3-37.1,7.8c-11.2,4.6-23.2,7-35.4,7h-0.3c-14.9-0.4-26.7-12.6-26.5-27.4v-23.9h38.4v-38.4h-38.4v-38.4h-41.7v38.4
	h-38.4v38.4h38.4V249c0.1,14.9-11.7,27.1-26.5,27.4h-0.2c-12.4,0-24.6-2.5-36-7.1c-11.6-4.7-23.9-7.3-36.4-7.7
	c-21.3-1-33.8,1.4-51.3,9.8c-32.7,15.6-53.7,52.1-48,83.1c4.3,23.5,18.6,44.9,49.6,74.5l19.8,19l1.3,43.2c0,3.6,0.2,7,0.3,10
	c-7.3,2.6-11.1,10.6-8.5,17.9c1.6,4.4,5.3,7.7,9.8,8.9c0,0.1,0,0.2,0,0.4c-14.9,6.3-22.3,10.8-25.2,15.2c-2.9,4.5-7.2,24.1-7.2,28.2
	h174.5h8.7c88.7,0,176.3,0,175.8,0c0-4.1-4.2-23.8-7-28.2c-2.8-4.4-10.3-9-25.3-15.3V528c7.5-1.9,12.1-9.5,10.2-17
	c-1.1-4.5-4.5-8.2-8.9-9.8c0-3.1,0.2-6.4,0.3-10L510,448z M482.4,506.4c4.4-0.2,8.1,3.1,8.4,7.5c0.2,4.4-3.1,8.1-7.5,8.4
	c-0.3,0-0.6,0-0.9,0H237.7c-4.4,0.2-8.1-3.1-8.4-7.5c-0.2-4.4,3.1-8.1,7.5-8.4c0.3,0,0.6,0,0.9,0H482.4z M181,311.1
	c16.9-23.8,43.6-26.6,66.5-23.3c31,4.1,58,23.4,71.9,51.5c13,27.1,9.3,52.5,9.3,92.6h-96.8C231.9,431.8,146.7,359.5,181,311.1
	L181,311.1z M494.6,545H225.3c-4.4,0-7.9-3.6-7.9-8c0-4.4,3.6-7.9,7.9-7.9h269.3c4.4,0,7.9,3.6,7.9,8C502.5,541.4,499,545,494.6,545
	L494.6,545z M488.2,431.8h-96.8c0-40.1-3.7-65.5,9.3-92.6c13.9-28.1,40.8-47.4,71.8-51.5c22.8-3.3,49.6-0.4,66.5,23.3
	C573.4,359.5,488.2,431.8,488.2,431.8L488.2,431.8z"/>
</svg>
