<?xml version="1.0" encoding="utf-8"?>
<!-- Generator: Adobe Illustrator 18.1.0, SVG Export Plug-In . SVG Version: 6.00 Build 0)  -->
<svg version="1.1" id="Artwork" xmlns="http://www.w3.org/2000/svg" xmlns:xlink="http://www.w3.org/1999/xlink" x="0px" y="0px"
	 viewBox="0 0 720 720" enable-background="new 0 0 720 720" xml:space="preserve">
<path d="M542.2,204.2c-19.2,1.1-33.8,17.6-32.6,36.8c0.7,11.6,7.2,22.1,17.2,28l-4.4,9.1c-7.7,16.3-26,46.4-36.1,66.9L468,382.3
	l-3.7-65.4c-2.1-35.9-4.2-73.1-4.7-82.6v-0.4c19.1-1.6,33.3-18.4,31.6-37.5c-1.6-19.1-18.4-33.3-37.5-31.6
	c-19.1,1.6-33.3,18.4-31.6,37.5c1.1,13.3,9.7,24.7,22.2,29.5l-15.5,44.3c-28.5,81.9-33.3,95.1-33.9,94.5
	c-0.6-0.6-10.5-56-25.8-143.4l-2.5-14c18.9-3.5,31.3-21.6,27.8-40.5c-3.1-16.5-17.4-28.4-34.2-28.4l0,0c-19.2,0-34.8,15.6-34.8,34.7
	c0,16.8,11.9,31.1,28.4,34.2l-4.9,28.5c-12.5,71.4-22.9,128.5-23.3,129.1c-0.4,0.5-6.4-15.7-33.8-94.6l-16.3-46.7
	c17.9-6.6,27.1-26.5,20.5-44.4c-6.6-17.9-26.5-27.1-44.4-20.5s-27.1,26.5-20.5,44.4c4.7,12.8,16.5,21.6,30.1,22.5
	c-0.7,8.8-2.5,41.8-4.3,76c-1.9,35.4-3.7,66.7-4,69.5c-0.5,5.3-17-19.3-54.1-97.4l-5.1-10.8c16.7-9.6,22.4-31,12.8-47.6
	c-9.6-16.7-31-22.4-47.6-12.8c-16.7,9.6-22.4,31-12.8,47.6c6.2,10.8,17.7,17.4,30.1,17.4c1,0,2,0,2.9-0.1c1.7,13.1,7.7,30.9,10,50.3
	c4.7,38.7,8.9,71.8,9.3,73.7s7.4,11.3,15.4,21.1c15,18.3,19.3,25.5,28.8,47.6L248,479c0,0-2,13.4-3.4,25.9h-6.8
	c-7.4,0-13.5,6-13.5,13.5c0,3,1,6,2.9,8.3c-24.7,9.3-35.6,15.1-39.3,20.8c-2.9,4.4-7.2,24.1-7.2,28.2c0,0,360,0.1,358.9,0
	c0-4.1-4.2-23.8-7-28.2c-3.7-5.7-14.7-11.5-39.4-21c4.6-5.8,3.6-14.3-2.2-18.9c-2.4-1.9-5.3-2.9-8.3-2.9h-7.9c0,0,0-0.2,0-0.3
	c-0.6-12.5-2.3-25.5-2.3-25.5l5.9-13.6l8.3-19.2c1.3-3,9.6-14.5,18.4-25.5c8.8-10.9,16.5-21.8,16.9-24.1s4.7-35.6,9.3-73.8
	c2.3-19,8.3-36.4,10-49.4c1,0,1.8,0.1,2.8,0.1c19.2-0.1,34.6-15.8,34.5-34.9c-0.1-19.2-15.8-34.6-34.9-34.5c-0.5,0-1,0-1.6,0
	L542.2,204.2z M494.7,533.1c4.4,0,7.9,3.6,7.9,8c0,4.4-3.6,7.9-7.9,7.9H225.4c-4.4,0-7.9-3.6-7.9-8c0-4.4,3.6-7.9,7.9-7.9H494.7z
	 M482.5,510.4c4.4,0.2,7.8,4,7.5,8.4c-0.2,4.1-3.5,7.3-7.5,7.5H237.6c-4.4,0.2-8.1-3.1-8.4-7.5c-0.2-4.4,3.1-8.1,7.5-8.4
	c0.3,0,0.6,0,0.9,0H482.5z"/>
</svg>
