<?xml version="1.0" encoding="utf-8"?>
<!-- Generator: Adobe Illustrator 18.1.0, SVG Export Plug-In . SVG Version: 6.00 Build 0)  -->
<svg version="1.1" id="Artwork" xmlns="http://www.w3.org/2000/svg" xmlns:xlink="http://www.w3.org/1999/xlink" x="0px" y="0px"
	 viewBox="0 0 720 720" enable-background="new 0 0 720 720" xml:space="preserve">
<path d="M532.3,544.6c-3.8-5.8-15-11.7-40.5-21.3c-1.9-35.6,0.7-75.1-37.6-110.9c-19.6-14-32-13.7-33.2-24.5
	c-1.2-13.1-2.5-26.8-3.7-39.9c0-1.6-0.3-3.9-0.5-6.8l22,16.6c0,0,8,8.6,7,18.9c-1,10.3,25,24.4,29.3,18.7l4.3-5.7
	c1.3,1.9,3.4,2.9,5.6,2.8c4.1,0.3,8.1,0.8,12.1,1.6c3.9,0.7,10.3-7.8,10.3-7.8s22.2-20.8,21.6-27.2c-2.6-27.3-24.3-32.7-37-60.2
	c-4.2-9-10.8-21-17.9-32.9c0.9-7,1.1-14,0.4-21c-1-8.9-17.8-23-29.2-31.6c3.1-6.2,8.9-18.5,7.7-19.4c-27.5-19.9-64.4-18.2-81.3-16
	c-5.7,0.7,0.6-31,0.6-31s-43.8,5.5-41.7,44.5l-22.5,16.5c-33.5,24.6-60,57.6-77,95.5l0,0c-15.9,35.5-22.9,74.3-20.5,113l2,32.3
	c-0.4,8.3-0.2,14,1,16c4,6.6,26.6,17.7,45.7,42c-9.1,6.4-19.1,11.6-29.6,15.4c-26.8,10.1-38.4,16-42.3,22
	c-2.9,4.4-7.2,24.1-7.2,28.2c0,0,360,0.1,358.9,0C539.4,568.7,535.2,549,532.3,544.6z M443.4,246.2c1.9,1.9,4.2,2.8,12.6,6.5
	s3.3,19.5,3.3,19.5c-1.9-3.9-5.3-6.8-9.3-8.1C443.4,262.2,441.5,244.3,443.4,246.2L443.4,246.2z M262.4,529.6h195.1
	c3.4,0.2,6,3.2,5.8,6.6c-0.2,3.1-2.7,5.6-5.8,5.8H262.4c-3.4-0.2-6-3.2-5.8-6.6C256.7,532.3,259.3,529.8,262.4,529.6z M494.6,564.6
	H225.3c-3.4,0.2-6.4-2.4-6.6-5.8c-0.2-3.4,2.4-6.4,5.8-6.6c0.3,0,0.5,0,0.8,0h269.3c3.4-0.2,6.4,2.4,6.6,5.8
	c0.2,3.4-2.4,6.4-5.8,6.6C495.1,564.6,494.9,564.6,494.6,564.6z"/>
</svg>
