<?xml version="1.0" encoding="utf-8"?>
<!-- Generator: Adobe Illustrator 18.1.0, SVG Export Plug-In . SVG Version: 6.00 Build 0)  -->
<svg version="1.1" id="Artwork" xmlns="http://www.w3.org/2000/svg" xmlns:xlink="http://www.w3.org/1999/xlink" x="0px" y="0px"
	 viewBox="0 0 720 720" enable-background="new 0 0 720 720" xml:space="preserve">
<path d="M532.4,537.5c-3.9-5.9-15.5-11.9-42.3-22l-0.8-0.3c-34-13.1-57.4-44.6-60-81c-0.1-1.9-0.3-3.6-0.3-4.9
	c-0.3-6.7-0.6-30.7-0.8-50.2h8.6c2.9,0,5.7-0.4,8.4-1.2l0.5-0.2c12.6-3.6,8.4-10.5,8.4-10.5s33-3.3,30.6-17.7
	c-0.6-14.4-23.3-18.3-23.3-18.3s6.6-16.8-32.7-18c-8.7,0-5.4-12.6-1.5-12.6c3.9,0,18.3-5.7,18-11.4c-0.3-5.7-9.3-4.5-7.5-8.4
	c0.2-0.5,0.5-1.1,0.7-1.8h35.2c6.7,0,12.2-5.5,12.2-12.2v-80.8c0-6-4.4-11.1-10.4-12.1l-19.7-3c-6.7-1-12.9,3.6-13.9,10.3
	c-0.1,0.6-0.1,1.2-0.1,1.8v18c0,4.5-3.6,8.1-8.1,8.1h-18.9c-4.5,0-8.1-3.6-8.1-8.1v-25.8c0-6-3.7-11.3-9.3-13.4l-4.9-1.8
	c-20.1-7.3-42.2-7.3-62.4,0l-4.9,1.8c-5.6,2.1-9.3,7.4-9.3,13.4v25.8c0,4.5-3.6,8.1-8.1,8.1h-19c-4.5,0-8.1-3.6-8.1-8.1v-18
	c0-6.7-5.5-12.2-12.2-12.2c-0.6,0-1.2,0-1.8,0.1l-19.7,3c-6,0.9-10.4,6-10.4,12.1v80.8c0,6.7,5.5,12.2,12.2,12.2H282
	c0.2,0.6,0.4,1.2,0.7,1.8c1.8,3.9-7.2,2.7-7.5,8.4c-0.3,5.7,14.1,11.4,18,11.4s7.2,12.6-1.5,12.6c-39.4,1.2-32.7,18-32.7,18
	s-22.8,3.9-23.3,18.3c-2.3,14.4,30.6,17.7,30.6,17.7s-4.2,7,8.4,10.5l0,0c3.1,0.9,6.4,1.3,9.6,1.3h7.9c-0.2,19.5-0.5,43.5-0.8,50.2
	c-0.1,2-0.4,4.7-0.7,7.6c-3.6,35.4-26.8,65.7-60.1,78.3l-0.8,0.3c-26.8,10.1-38.4,16-42.3,22c-2.9,4.4-7.2,24.1-7.2,28.2
	c0,0,360,0.1,358.9,0C539.4,561.6,535.3,541.9,532.4,537.5z M262.4,516.1h195c3.4-0.2,6.4,2.4,6.6,5.8c0.2,3.4-2.4,6.4-5.8,6.6
	c-0.3,0-0.5,0-0.8,0h-195c-3.4-0.2-6-3.2-5.8-6.6C256.8,518.8,259.3,516.3,262.4,516.1L262.4,516.1z M494.6,551.2H225.3
	c-3.4,0-6.2-2.8-6.2-6.2c0-3.4,2.8-6.2,6.2-6.2c0,0,0,0,0.1,0h269.3c3.4,0,6.2,2.8,6.2,6.2C500.8,548.4,498.1,551.1,494.6,551.2z"/>
</svg>
