<?xml version="1.0" encoding="utf-8"?>
<!-- Generator: Adobe Illustrator 18.1.0, SVG Export Plug-In . SVG Version: 6.00 Build 0)  -->
<svg version="1.1" id="Artwork" xmlns="http://www.w3.org/2000/svg" xmlns:xlink="http://www.w3.org/1999/xlink" x="0px" y="0px"
	 viewBox="0 0 720 720" enable-background="new 0 0 720 720" xml:space="preserve">
<path fill="none" d="M118.1,67.6h0.5C118.5,67.3,118.3,67.4,118.1,67.6z"/>
<g>
	<path fill="#FFFFFF" d="M286.7,470.8h0.5C287.1,470.4,286.9,470.6,286.7,470.8z"/>
	<path fill="#231F20" d="M287,470.5c0,0,0.1,0,0.2,0.2h-0.5C286.8,470.6,286.9,470.6,287,470.5 M287,458.9c-3,0-6,1.2-8.2,3.3
		l-22.6,20.7l30.7-0.5h0.5l17.8-0.4l-7.4-16.3c-1.9-4.2-6.1-7-10.8-7L287,458.9z"/>
	<path fill="#FFFFFF" d="M425.4,571.2h-162h-77c-8.7,0-8.7,0-10.4-1.8l-1.6-1.7v-2.3c0-4.7,4.3-25.5,8.1-31.4
		c4.7-7.2,16.1-13.4,45.1-24.3c10.3-3.7,20.1-8.8,29-15.2c9.7-7.4,18.1-16.5,24.6-26.8c1.5-2.3,5.3-9.6,13.9-32.7
		c7-18.8,11.4-38.4,13.2-58.4c-5.3-1.6-8.6-4.2-10-7.8c0,0,0-0.2,0-0.3c-6.7-1.1-17.5-3.8-22.1-9.9c-2-2.5-2.8-5.7-2.3-8.9
		c0.7-10.8,11.9-15.6,18.7-17.6c0.3-1.3,0.8-2.5,1.5-3.7c2.9-4.9,8.8-8.1,18-9.7l0.2-3.4c-4.7-2.8-7-6.2-6.7-10
		c0.2-3.3,2.1-6.2,5-7.6l-0.5-1.8c-22.5-14.4-35.3-39-35.3-68c0-45.7,35.8-78.9,85.1-78.9s85.1,33.2,85.1,78.9
		c0,29-12.8,53.7-35.3,68c-0.2,0.7-0.3,1.3-0.5,1.8c2.9,1.5,4.8,4.4,5,7.6c0.2,3.8-2.1,7.2-6.7,10l0.2,3.4c9.2,1.6,15.1,4.7,18,9.7
		c0.7,1.1,1.2,2.4,1.5,3.7c6.8,2,17.9,6.8,18.7,17.6c0.5,3.2-0.4,6.4-2.3,8.9c-4.7,6.1-15.3,8.8-22.1,9.9c0,0.1,0,0.2,0,0.3
		c-1.4,3.6-4.7,6.2-10,7.8c1.6,19.5,5.8,38.7,12.5,57.1c3.4,9.8,7.3,19.5,11.7,28.9h0.3l1.8,3.6c6.6,10.8,15.2,20.3,25.3,28
		c8.9,6.5,18.7,11.6,29.1,15.3c29,10.9,40.4,17,45.1,24.3c3.7,5.7,8,26.7,8,31.4v0.4c-0.3,5.5-5.6,5.5-8.1,5.5L425.4,571.2
		L425.4,571.2z M225.1,547.1c-0.2,0-0.4,0.2-0.4,0.4c0,0.2,0.2,0.4,0.4,0.4h269.3c0.2,0,0.4-0.2,0.4-0.4c0-0.2-0.2-0.4-0.4-0.4
		c0,0,0,0,0,0H225.1z M262.2,524.5c-0.2,0-0.4,0.2-0.4,0.4c0,0.2,0.2,0.4,0.4,0.4c0,0,0,0,0,0h195.1c0.2,0,0.4-0.2,0.4-0.4
		c0-0.2-0.2-0.4-0.4-0.4c0,0,0,0,0,0H262.2z"/>
	<path fill="#231F20" d="M359.8,154.8c45.6,0,79.4,30.9,79.4,73.1c0,27-11.8,50.7-34.7,64.3c-0.4,2.5-1.2,4.9-2.1,7.2
		c-1.4,2.9,5.8,2,6,6.2c0.1,2.3-3.3,4.7-7,6.3c0.2,3.6,0.4,7.6,0.7,12c23.6,2.3,19.2,12.9,19.2,12.9s18.2,2.9,18.7,13.6
		c1.9,10.7-24.5,13.1-24.5,13.1s3.4,5.1-6.7,7.8c-1.5,0.4-2.7,0.8-3.7,1.2l0.1,1.8c1.5,21,5.9,41.7,13.1,61.5
		c4.9,13.3,10.4,27.5,13.8,32.7l0,0l0,0l0,0c7.1,11.8,16.3,22.2,27.2,30.6c9.4,6.8,19.6,12.2,30.5,16.1c26.8,10.1,38.4,16.1,42.3,22
		c2.9,4.4,7,24.1,7,28.2c0.4,0-50.2,0-113.5,0c-105,0-245.3,0-245.3,0c0-4.1,4.3-23.8,7.2-28.2c3.9-5.9,15.5-11.9,42.3-22
		c10.8-3.9,21-9.3,30.3-16c10.3-7.8,19.1-17.4,26-28.3c3.5-5.3,9.3-19.9,14.5-33.7c7.7-20.6,12.3-42.2,13.8-64.1v-0.5
		c-1-0.4-2.2-0.8-3.7-1.2c-10.1-2.7-6.7-7.8-6.7-7.8s-26.4-2.3-24.5-13.1c0.5-10.7,18.7-13.6,18.7-13.6s-4.4-10.5,19.2-12.9
		c0.2-4.3,0.5-8.4,0.7-12c-3.6-1.6-7-3.9-7-6.3c0.2-4.2,7.4-3.3,6-6.2c-0.9-2.3-1.6-4.8-2.1-7.2c-22.8-13.6-34.6-37.3-34.6-64.3
		c0-42.2,33.6-73.1,79.4-73.1 M286.4,470.8h0.5c0-0.1-0.1-0.2-0.2-0.2C286.6,470.6,286.5,470.7,286.4,470.8 M262.2,531.1h195.1
		c3.4,0,6.2-2.8,6.2-6.2c0-3.4-2.8-6.2-6.2-6.2c0,0,0,0-0.1,0H262.2c-3.4,0-6.2,2.8-6.2,6.2C255.9,528.3,258.7,531.1,262.2,531.1
		C262.2,531.1,262.2,531.1,262.2,531.1 M225.1,553.7h269.3c3.4,0,6.2-2.8,6.2-6.2c0-3.4-2.8-6.2-6.2-6.2c0,0,0,0-0.1,0H225.1
		c-3.4,0-6.2,2.8-6.2,6.2C218.9,550.9,221.7,553.7,225.1,553.7 M359.8,143.1c-25,0-48,8.4-64.7,23.8c-17,15.7-26.5,37.8-26.3,61
		c0,28.9,12,53.8,33.3,69.6c-1.5,2.2-2.4,4.8-2.5,7.5c-0.2,3.6,1,7.2,3.3,10c-5.8,1.7-10.8,5.4-14,10.4c-0.4,0.6-0.7,1.3-1,1.9
		c-9.9,3.5-19,10.5-19.9,21.7c-0.6,4.6,0.7,9.3,3.5,13c5.1,6.7,15,10,22.8,11.7c1.9,2.9,4.6,5.2,7.7,6.6c-1.9,18-6.1,35.6-12.4,52.5
		c-8.6,23.3-12.2,29.7-13.3,31.4c-6.1,9.8-14,18.4-23.2,25.4c-8.5,6.1-17.7,11-27.6,14.4c-30.8,11.7-42.4,18-48,26.5
		c-4.7,7-9.1,29.1-9.1,34.6v4.7l3.3,3.4c3.5,3.5,5.6,3.5,14.6,3.5h352.1c6.3,0.2,11.7-4.6,12.2-11l-1.4-11.2
		c-1.6-8.5-4.5-19.4-7.5-24c-5.6-8.5-17.2-15-48-26.5c-9.9-3.5-19.2-8.4-27.6-14.5c-9.4-7.2-17.4-16.1-23.6-26.2v-0.1l-3.2-6.4h-0.3
		c-2-4.4-5.1-12-9.9-25.1c-6-16.6-10-33.8-11.8-51.3c3.2-1.5,5.9-3.8,7.8-6.7c7.9-1.6,17.7-4.9,22.8-11.7c2.9-3.7,4.2-8.4,3.5-13
		c-0.9-11.2-10-18.2-19.9-21.7c-0.3-0.7-0.6-1.3-1-1.9c-3.2-5.1-8.2-8.8-14-10.4c2.3-2.8,3.5-6.4,3.3-10c-0.1-2.7-1-5.3-2.5-7.5
		c21.2-15.8,33.3-40.7,33.3-69.6c0.2-23.1-9.3-45.2-26.3-60.8C407.7,151.6,384.7,143.2,359.8,143.1L359.8,143.1z"/>
</g>
</svg>
