<?xml version="1.0" encoding="utf-8"?>
<!-- Generator: Adobe Illustrator 18.1.0, SVG Export Plug-In . SVG Version: 6.00 Build 0)  -->
<svg version="1.1" id="Artwork" xmlns="http://www.w3.org/2000/svg" xmlns:xlink="http://www.w3.org/1999/xlink" x="0px" y="0px"
	 viewBox="0 0 720 720" enable-background="new 0 0 720 720" xml:space="preserve">
<g>
	<path fill="#FFFFFF" d="M425.4,571.6h-162h-77c-8.7,0-8.7,0-10.4-1.8l-1.6-1.7v-2.3c0-4.7,4.3-25.5,8.1-31.4
		c4.7-7.2,16.1-13.4,45.1-24.3l0.8-0.3c31.2-11.8,52.9-40.3,56.2-73.5c0.3-3.1,0.5-5.6,0.6-7.3c0.2-4.8,0.4-20,0.7-44h-2.1
		c-3.8,0-7.5-0.5-11.2-1.5c-6.7-1.9-10.9-5.1-12.6-9.3c-0.2-0.6-0.4-1.1-0.5-1.7c-7.9-1.4-21.4-4.7-27.3-12.4
		c-2.4-3.1-3.5-7-2.9-10.9c0.7-12.5,13.2-19.4,23.1-22.3c0.3-2.4,1.2-4.7,2.5-6.7c5.2-7.9,17-12,36.1-12.7c0-0.4-0.1-0.8-0.2-1.1
		c-6.9-1.3-13.2-4.5-18.4-9.2c-2.2-2.1-3.5-5.1-3.4-8.2c0.1-1.4,0.4-2.8,1.1-4.1h-21.8c-10,0-18-8.1-18-18v-80.8
		c-0.1-8.9,6.5-16.5,15.3-17.8l19.7-3c0.9-0.1,1.8-0.2,2.8-0.2c10,0,18,8.1,18,18v18c0,1.3,1,2.3,2.3,2.3h18.9c1.3,0,2.3-1,2.3-2.3
		v-26c0-8.5,5.3-16,13.2-18.9l4.9-1.8c21.4-7.8,44.9-7.8,66.4,0l4.9,1.8c7.9,2.9,13.2,10.5,13.2,18.9v25.8c0,1.3,1,2.3,2.3,2.3h18.9
		c1.3,0,2.3-1,2.3-2.3v-18c0-10,8-18,18-18c0.9,0,1.9,0.1,2.8,0.2l19.7,3c8.8,1.3,15.4,8.9,15.3,17.8v80.8c0,10-8.1,18-18,18h-23.9
		c0.6,1.3,1,2.7,1.1,4.1c0.1,3.1-1.2,6.1-3.4,8.2c-5.2,4.7-11.5,7.8-18.4,9.2c-0.1,0.4-0.2,0.8-0.2,1.1c19.1,0.6,30.9,4.7,36.1,12.7
		c1.3,2,2.2,4.3,2.5,6.7c9.9,2.9,22.4,9.8,23.1,22.3c0.6,3.9-0.5,7.8-2.9,10.9c-5.9,7.6-19.4,11-27.3,12.4c-0.1,0.6-0.3,1.2-0.5,1.7
		c-1.7,4.3-5.9,7.5-12.6,9.3l-0.5,0.2c-3.3,0.9-6.7,1.4-10.1,1.4h-2.7c0.3,24,0.5,39.2,0.7,44.1c0,1.2,0.2,2.9,0.3,4.7
		c2.5,34.1,24.4,63.7,56.3,76l0.8,0.3c29,10.9,40.4,17,45.1,24.3c3.8,5.8,8,26.7,8,31.4v0.4c-0.3,5.5-5.6,5.5-8.1,5.5H425.4V571.6z
		 M225,544.6c-0.2,0-0.4,0.2-0.4,0.4c0,0.2,0.2,0.4,0.4,0.4h0h269.3c0.2,0,0.4-0.2,0.4-0.4l0,0c0-0.2-0.2-0.4-0.4-0.4H225z
		 M262.1,522c-0.2,0-0.4,0.2-0.4,0.4c0,0.2,0.2,0.4,0.4,0.4h0h195c0.2,0,0.4-0.2,0.4-0.4c0-0.2-0.2-0.4-0.4-0.4H262.1z"/>
	<path fill="#231F20" d="M360.9,154.4c10.6,0,21.2,1.9,31.2,5.5l4.9,1.8c5.6,2.1,9.4,7.4,9.3,13.4v25.8c0,4.5,3.6,8.1,8.1,8.1h18.9
		c4.5,0,8.1-3.6,8.1-8.1v-18c0-6.7,5.5-12.2,12.2-12.2c0.6,0,1.2,0,1.9,0.1l19.7,3c6,0.9,10.4,6,10.4,12.1v80.8
		c0,6.7-5.5,12.2-12.2,12.2H438c-0.2,0.7-0.5,1.3-0.7,1.8c-1.8,3.9,7.2,2.7,7.5,8.4s-14,11.4-18,11.4s-7.2,12.6,1.5,12.6
		c39.4,1.2,32.7,18,32.7,18s22.8,3.9,23.3,18.3c2.3,14.4-30.6,17.7-30.6,17.7s4.2,7-8.4,10.5l-0.5,0.1c-2.7,0.8-5.6,1.2-8.4,1.2
		h-8.6c0.2,19.5,0.5,43.5,0.8,50.2c0,1.3,0.2,3,0.3,4.9c2.6,36.4,26,67.9,60,81l0.8,0.3c26.8,10.1,38.4,16.1,42.3,22
		c2.9,4.4,7,24.1,7,28.2c0.4,0-50.2,0-113.6,0c-105,0-245.3,0-245.3,0c0-4.1,4.3-23.8,7.2-28.2c3.9-5.9,15.5-11.9,42.3-22l0.8-0.3
		c33.2-12.7,56.3-43,59.9-78.4c0.3-3,0.5-5.6,0.7-7.6c0.3-6.7,0.6-30.7,0.8-50.2h-7.9c-3.2,0-6.5-0.4-9.6-1.3l0,0
		c-12.6-3.6-8.4-10.5-8.4-10.5s-33-3.3-30.6-17.7c0.6-14.4,23.3-18.3,23.3-18.3s-6.6-16.8,32.7-18c8.7,0,5.4-12.6,1.5-12.6
		s-18.3-5.7-18-11.4c0.3-5.7,9.3-4.5,7.5-8.4c-0.3-0.6-0.5-1.2-0.7-1.8h-33c-6.7,0-12.2-5.5-12.2-12.2v-80.8c0-6,4.4-11.2,10.4-12.1
		l19.7-3c0.6-0.1,1.2-0.1,1.9-0.1c6.7,0,12.2,5.5,12.2,12.2v18c0,4.5,3.6,8.1,8.1,8.1h18.9c4.5,0,8.1-3.6,8.1-8.1v-25.8
		c0-6,3.7-11.4,9.3-13.4l4.9-1.8C339.7,156.2,350.2,154.4,360.9,154.4 M262,528.6h195.1c3.4,0.2,6.4-2.4,6.6-5.8
		c0.2-3.4-2.4-6.4-5.8-6.6c-0.3,0-0.5,0-0.8,0h-195c-3.4,0.2-6,3.2-5.8,6.6C256.5,525.9,259,528.4,262,528.6 M225,551.2h269.3
		c3.4-0.2,6-3.2,5.8-6.6c-0.2-3.1-2.7-5.6-5.8-5.8H225c-3.4,0.2-6,3.2-5.8,6.6C219.4,548.5,221.9,551,225,551.2 M360.9,142.8
		L360.9,142.8c-12,0-23.9,2.1-35.2,6.2l-4.9,1.8c-10.2,3.7-17.1,13.5-17.1,24.4v22.3h-11.8V183c0-13.2-10.6-23.9-23.8-24h0
		c-1.2,0-2.4,0.1-3.6,0.3l-19.7,3c-11.7,1.7-20.3,11.8-20.3,23.6v80.8c0,13.2,10.7,23.9,23.9,23.9h14.9c0.4,4,2.2,7.6,5,10.5
		c1,1,2.1,2,3.2,2.8c-10.2,2.3-17.2,6.7-21.3,12.9c-1.1,1.7-2,3.5-2.6,5.4c-10.9,3.9-23,12.1-23.9,26.2c-0.7,5.4,0.8,10.8,4.1,15
		c6.3,8.2,18.5,12.2,27.6,14c2.6,5.5,7.9,9.3,15.8,11.7h0.1c2.9,0.8,5.9,1.4,8.9,1.6c-0.3,20.5-0.5,33.6-0.6,38.1c0,1.6-0.3,4-0.6,7
		c-3,31-23.3,57.6-52.4,68.6l-0.7,0.3c-30.8,11.7-42.4,18-48,26.5c-4.6,7-9.1,29.1-9.1,34.6v4.7l3.3,3.4c3.5,3.5,5.6,3.5,14.6,3.5
		h352.2c6.4,0.3,11.8-4.6,12.1-11l-1.4-11.2c-1.6-8.5-4.5-19.4-7.5-24c-5.6-8.5-17.2-15-48-26.5l-0.7-0.3
		c-29.8-11.5-50.2-39.1-52.5-70.9c-0.1-1.8-0.2-3.4-0.3-4.7c-0.2-4.5-0.4-17.6-0.6-38.1c2.9-0.2,5.7-0.7,8.5-1.5l0.5-0.1
		c7.9-2.3,13.2-6.1,15.8-11.7c9.1-1.9,21.3-5.8,27.5-14c3.3-4.2,4.8-9.7,4.1-15c-1-14-13-22.3-23.9-26.2c-0.6-1.9-1.5-3.7-2.6-5.4
		c-4.1-6.2-11.1-10.5-21.3-12.9c1.1-0.8,2.2-1.8,3.2-2.8c2.8-2.8,4.6-6.5,5-10.5h17c13.2,0,23.9-10.7,23.9-23.9v-80.8
		c0.1-11.8-8.6-21.9-20.3-23.6l-19.7-3c-1.2-0.2-2.4-0.3-3.6-0.3c-13.2,0-23.8,10.7-23.9,23.9v14.5H418V175
		c0-10.9-6.8-20.6-17.1-24.4l-4.9-1.8c-11.3-4.1-23.2-6.2-35.2-6.2L360.9,142.8z"/>
</g>
</svg>
