<?xml version="1.0" encoding="utf-8"?>
<!-- Generator: Adobe Illustrator 18.1.0, SVG Export Plug-In . SVG Version: 6.00 Build 0)  -->
<svg version="1.1" id="Artwork" xmlns="http://www.w3.org/2000/svg" xmlns:xlink="http://www.w3.org/1999/xlink" x="0px" y="0px"
	 viewBox="0 0 720 720" enable-background="new 0 0 720 720" xml:space="preserve">
<g>
	<path fill="#FFFFFF" d="M425.4,581.6h-162h-77c-8.8,0-8.8,0-10.5-1.9l-1.6-1.7v-2.3c0-4.7,4.3-25.5,8.1-31.4
		c4.7-7.3,16.1-13.4,45.1-24.3c24.8-9.3,39.8-21,53.5-42l0.3-0.4v-5.5c-27.7-24.3-47.6-71.1-47.6-112.6c0-42,21.6-95.5,55.2-136.2
		l7.3-8.9l22.4,86.8V193.5l2.3-1.8c4.6-3.6,9.5-7,14.5-10c-8.2-13.4-4-30.9,9.4-39.1c13.4-8.2,30.9-4,39.1,9.4
		c2.7,4.5,4.2,9.6,4.2,14.9c0,4.7-1.1,9.2-3.3,13.4c59.7,31.9,100.7,118.4,100.7,179.3c0,41.5-19.9,88.3-47.6,112.6v5.3
		c13.8,21.3,29.1,33.4,53.9,42.7c29,10.9,40.4,17,45.1,24.3c3.7,5.8,8,26.7,8,31.4v0.4c-0.3,5.5-5.6,5.5-8.1,5.5H425.4z M225,558
		c-0.2,0-0.4,0.2-0.4,0.4c0,0.2,0.2,0.4,0.4,0.4h269.3c0.2,0,0.4-0.2,0.4-0.4c0-0.2-0.2-0.4-0.4-0.4H225z M262.1,535.4
		c-0.2,0-0.4,0.2-0.4,0.4c0,0.2,0.2,0.4,0.4,0.4c0,0,0,0,0,0h195.1c0.2,0,0.4-0.2,0.4-0.4c0-0.2-0.2-0.4-0.4-0.4H262.1z"/>
	<path fill="#231F20" d="M359.7,144.2c12.5,0,22.6,10.2,22.6,22.7c0,5.8-2.2,11.4-6.2,15.5c61,28,103.6,116.2,103.6,177.1
		c0,39.1-18.7,86.1-47.7,109.9v9.7c14.9,23.6,31.3,36.5,57.7,46.4c26.8,10.1,38.4,16.1,42.3,22c2.9,4.4,7,24.1,7,28.2
		c0.4,0-50.2,0-113.5,0c-105,0-245.4,0-245.4,0c0-4.1,4.3-23.8,7.2-28.2c3.9-5.9,15.5-11.9,42.3-22c25.7-9.6,41.8-22.1,56.4-44.3
		h1.2c0-3.9,0-7.9,0-11.8c-28.9-23.8-47.7-70.8-47.7-109.9c0-41.4,21.8-93.6,53.8-132.5l31,120.1V196.3c6.2-4.9,12.8-9.2,19.7-13
		c-9.2-8.5-9.7-22.8-1.2-32c4.3-4.6,10.3-7.2,16.6-7.2 M261.8,542h195.1c3.4,0,6.2-2.8,6.2-6.2c0-3.4-2.8-6.2-6.2-6.2c0,0,0,0-0.1,0
		H262.1c-3.4,0-6.2,2.8-6.2,6.2c0,3.4,2.8,6.2,6.2,6.2 M225,564.6h269.3c3.4,0,6.2-2.8,6.2-6.2c0-3.4-2.8-6.2-6.2-6.2H225
		c-3.4,0-6.2,2.8-6.2,6.2C218.8,561.8,221.6,564.6,225,564.6C225,564.6,225,564.6,225,564.6 M359.7,132.5
		c-18.9,0-34.3,15.3-34.3,34.3c0,4.4,0.8,8.8,2.5,12.8c-3.5,2.3-7,4.8-10.5,7.5l-4.5,3.5v64.6l-8.1-31.1l-5.7-22.2l-14.6,17.7
		c-34.3,41.7-56.5,96.7-56.5,140c0,42.7,19.4,89.1,47.6,115.2v1.2c-12.8,19.2-26.9,30.1-50,38.8c-30.8,11.5-42.4,18-48,26.5
		c-4.7,7-9.1,29.1-9.1,34.6v4.7l3.3,3.4c3.4,3.5,5.6,3.5,14.6,3.5h352.2c6.3,0.2,11.7-4.6,12.2-11l-1.4-11.2
		c-1.7-8.5-4.5-19.4-7.5-24c-5.6-8.5-17.2-15-48-26.5c-23.3-8.8-37.2-19.5-50.2-39v-1c28.2-26.1,47.6-72.4,47.6-115.2
		c0-32.7-11.1-71.5-30.3-106.5c-18.5-33.6-42.6-59.9-68.7-75.3c6-18-3.7-37.4-21.7-43.4C367.1,133.2,363.4,132.6,359.7,132.5
		L359.7,132.5z"/>
</g>
</svg>
