<?xml version="1.0" encoding="utf-8"?>
<!-- Generator: Adobe Illustrator 18.1.0, SVG Export Plug-In . SVG Version: 6.00 Build 0)  -->
<svg version="1.1" id="Artwork" xmlns="http://www.w3.org/2000/svg" xmlns:xlink="http://www.w3.org/1999/xlink" x="0px" y="0px"
	 viewBox="0 0 720 720" enable-background="new 0 0 720 720" xml:space="preserve">
<g>
	<path fill="#FFFFFF" d="M425.9,581.7h-162h-77c-8.6,0-8.6,0-10.3-1.7l-1.7-1.7v-2.3c0-4.7,4.3-25.5,8.1-31.4
		c4.2-6.4,13.9-12.1,36.2-20.8c-0.5-1.7-0.7-3.4-0.7-5.2c0-10.7,8.6-19.3,19.3-19.3h1.6c1-8.2,2.1-16,2.5-19.3l-4.8-11.3
		c-9.3-21.7-13.4-28.6-28-46.2c-5.8-7-15.6-19.5-16.5-23.6c-0.6-2.7-5.8-45-9.3-74.2c-1.4-10-3.3-19.9-5.8-29.6
		c-1.3-5.4-2.5-10.6-3.4-15.4c-22.4-1.3-39.5-20.5-38.2-42.9c1.2-21.3,18.8-38,40.2-38.2c0.9,0,1.8,0,2.7,0
		c22.4,1.6,39.3,21,37.7,43.4c-0.8,11.5-6.4,22-15.5,29.1l3,6.3c22.1,46.4,36.1,72.4,43.9,85.2c0.7-12.7,1.9-32.7,3.1-55.1
		c1.6-30.8,3.2-58,4-70.7c-21.9-4.8-35.8-26.5-30.9-48.4c4.1-18.6,20.6-31.9,39.7-31.9c0.8,0,1.7,0,2.6,0
		c22.4,1.5,39.3,20.8,37.8,43.2c-0.9,14-9.1,26.6-21.5,33.1l14.5,41.5c12.6,36.3,21.2,60.9,26.4,75.7c4.1-22,11.1-61.3,19.5-109.3
		l4-23.3c-21.2-7.2-32.7-30.2-25.5-51.4c5.6-16.5,21.1-27.7,38.5-27.6h5.2v0.4c22.2,2.8,38,23.2,35.1,45.4
		c-2,15.4-12.5,28.3-27.2,33.3l1.6,8.8c11.2,63.7,18.2,102.7,22,123.5c5.3-14.9,14-39.5,26.4-75.5l13.7-39.5
		c-19.6-10.9-26.7-35.6-15.8-55.2c7.1-12.9,20.7-20.9,35.5-20.9c0.9,0,1.8,0,2.7,0c20.7,1.5,37,18.3,37.9,39.1
		c0.7,19.5-12.5,36.7-31.5,41c0.5,9.3,4.5,77.7,4.5,77.7l2.5,43.1l8.5-17.4c5.1-10.5,12.3-23.2,19.2-35.5
		c6.9-12.3,13.1-23.3,16.9-31.3l2.3-4.7c-17.7-13.8-20.9-39.3-7.1-57c7.2-9.2,18-14.9,29.7-15.6h2.3c22.4-0.1,40.6,18,40.8,40.4
		c0.1,21.7-16.9,39.7-38.6,40.7c-0.9,4.7-2.1,9.8-3.4,15.2c-2.5,9.5-4.4,19.2-5.8,29c-3.5,28-8.9,71-9.5,74.2
		c-1,4.9-13,20.3-18.1,26.6c-6.4,7.6-12.3,15.7-17.6,24.1l-0.6,1.3c-1.6,3.8-4.9,11.3-7.7,17.9l-5.3,12.2c0.4,3.2,1.3,10.9,1.9,19.2
		h2.3c10.7,0,19.3,8.6,19.4,19.3c0,1.8-0.2,3.5-0.7,5.2c22.4,8.8,32.1,14.4,36.3,20.9c3.7,5.7,8,26.7,8,31.4v0.4
		c-0.3,5.5-5.6,5.5-8.1,5.5H425.9V581.7z M225.5,538.9c-1.2,0.1-2,1.2-1.9,2.3c0.1,1,0.9,1.8,1.9,1.9h269.3c1.2,0.1,2.2-0.7,2.3-1.9
		c0.1-1.2-0.7-2.2-1.9-2.3c-0.1,0-0.3,0-0.4,0H225.5z M237.8,516.2c-1.2,0-2.1,1-2.1,2.1c0,1.2,0.9,2.1,2.1,2.1h244.8
		c1.2,0,2.1-1,2.1-2.1c0-1.2-0.9-2.1-2.1-2.1H237.8z"/>
	<path fill="#231F20" d="M360.1,144.3L360.1,144.3c19.2-0.1,34.8,15.4,34.9,34.6c0.1,16.8-12,31.3-28.5,34.3l2.5,14
		c15.4,87.3,25.3,142.9,25.8,143.4l0,0c0.8,0,5.9-14.4,33.8-94.5l15.5-44.3c-17.9-6.9-26.8-27-19.9-45c5.2-13.4,18-22.2,32.3-22.3
		c0.8,0,1.6,0,2.3,0c19.1,1.3,33.6,17.9,32.3,37c-1.2,17.1-14.6,30.8-31.7,32.3v0.5c0.6,9.5,2.7,46.7,4.7,82.6l3.7,65.4l18.3-37.3
		c10.1-20.5,28.3-50.6,36.1-66.9l4.4-9.1c-16.6-9.7-22.2-31-12.6-47.6c5.8-10.1,16.3-16.5,27.9-17.2c0.7,0,1.4,0,2,0
		c19.2-0.5,35.1,14.7,35.6,33.8c0.5,19.2-14.7,35.1-33.8,35.6c-0.6,0-1.2,0-1.8,0c-1,0-1.9,0-2.8-0.1c-1.7,13-7.7,30.3-10,49.3
		c-4.7,38.2-9,71.5-9.3,73.8s-8.1,13.2-16.9,24.1c-8.8,10.9-17.1,22.5-18.4,25.5s-5,11.7-8.3,19.2l-5.9,13.7c0,0,1.7,13,2.3,25.5
		c0,0,0,0.2,0,0.3h7.8c7.4,0,13.5,6.1,13.4,13.5c0,3-1,5.9-2.9,8.3c24.7,9.3,35.7,15.2,39.4,21c2.9,4.4,7,24.1,7,28.2
		c0.4,0-50.2,0-113.6,0c-105,0-245.3,0-245.3,0c0-4.1,4.3-23.8,7.2-28.2c3.7-5.7,14.6-11.5,39.3-20.9c-4.6-5.8-3.6-14.3,2.2-18.9
		c2.4-1.9,5.3-2.9,8.3-2.9h6.8c1.4-12.4,3.4-25.9,3.4-25.9l-5.5-12.8c-9.5-22.1-13.8-29.3-28.8-47.7c-8-9.8-14.9-19.3-15.4-21.1
		c-0.4-1.9-4.7-35-9.3-73.7c-2.3-19.3-8.3-37.1-10-50.3c-1,0.1-2,0.2-2.9,0.1c-19.2,0.5-35.1-14.7-35.6-33.8
		c-0.5-19.2,14.7-35.1,33.8-35.6c0.6,0,1.2,0,1.8,0h2.3c19.2,1.4,33.6,18,32.3,37.2c-0.8,11.4-7.2,21.7-17.1,27.5l5.1,10.8
		c34,71.4,50.7,98,53.7,98c0.3,0,0.4-0.2,0.5-0.7c0.3-2.8,2.1-34.1,4-69.5c1.8-34.1,3.7-67.1,4.3-76c-19.2-1.6-33.4-18.4-31.8-37.5
		c1.5-18,16.4-31.8,34.5-32h2.3c19.2,1.2,33.7,17.8,32.4,36.9c-0.9,13.8-9.9,25.8-22.9,30.4l16.3,46.7c26.9,77.5,33,94.6,33.7,94.6
		l0,0c0.5-0.5,10.9-57.7,23.3-129.1l4.9-28.5c-18.9-3.5-31.3-21.6-27.8-40.5C328.9,156.2,343.3,144.2,360.1,144.3 M237.7,526.3
		h244.8c4.4,0,7.9-3.6,7.9-8c0-4.4-3.6-7.9-7.9-7.9H237.8c-4.4,0-7.9,3.6-7.9,8C229.8,522.8,233.4,526.3,237.7,526.3 M225.5,548.9
		h269.3c4.4,0.2,8.1-3.1,8.4-7.5c0.2-4.4-3.1-8.1-7.5-8.4c-0.3,0-0.6,0-0.9,0H225.5c-4.4,0.2-7.8,4-7.5,8.4
		C218.2,545.5,221.4,548.7,225.5,548.9 M360.1,132.6c-25.6,0-46.4,20.7-46.5,46.4c0,18.1,10.5,34.6,26.9,42.2l-3.2,18.7
		c-6.4,36.4-11.7,66-15.5,87.5c-5.1-14.6-11.5-33.1-19.1-55l-13-37.1c21.2-14.4,26.7-43.3,12.2-64.5c-8-11.8-21.1-19.2-35.3-20.2
		c-1,0-2,0-2.9,0c-25.7,0-46.4,20.9-46.4,46.5c0,19.9,12.7,37.5,31.5,43.9c-0.9,14-2.3,38.7-3.7,66.1c-0.7,12.9-1.4,25-1.9,35.4
		c-7.7-14-18.7-35.4-34-67.7l-1.1-2.3c18.5-17.8,19.1-47.2,1.3-65.7c-8-8.3-18.8-13.4-30.3-14.2c-1,0-2.1,0-3.1,0
		c-25.6-0.2-46.5,20.5-46.7,46.1c-0.1,23.1,16.8,42.8,39.7,46.2c0.8,3.7,1.7,7.5,2.6,11.4c2.4,9.5,4.3,19.2,5.7,29
		c0,0.7,8.7,70.7,9.5,74.7c0.4,1.9,1.4,6.1,17.7,26.1c14.2,17.3,18,23.6,27.1,44.9l4.2,9.8c-0.4,3-1.1,7.7-1.8,12.9
		c-12.4,1.8-21.5,12.4-21.5,24.9c0,0.5,0,1,0,1.5c-20.7,8.4-29.9,14.2-34.5,21.3c-4.6,7.1-9.1,29.1-9.1,34.6v4.7l3.3,3.4
		c3.4,3.5,5.3,3.5,14.5,3.5H539c6.3,0.2,11.7-4.6,12.2-11l-1.4-11.2c-1.7-8.5-4.5-19.4-7.5-24c-4.7-7.2-13.8-12.9-34.7-21.4
		c0-0.5,0-1,0-1.5c0-12.7-9.5-23.4-22-25c-0.4-5.2-1-9.8-1.3-12.7l4.7-10.7c3-7,6.5-15,8-18.5l0.3-0.6c5.2-8,10.8-15.6,16.9-22.9
		c17.9-22.2,18.9-27.2,19.3-29.1c0.7-3.6,6.6-50.4,9.6-74.7c1.4-9.5,3.3-19,5.7-28.3c0.9-3.9,1.8-7.6,2.6-11.2
		c25.3-3.8,42.8-27.4,39-52.8c-3.4-22.8-23-39.6-46-39.5h-2.7c-23.2,1.4-41.7,19.6-43.6,42.7c-1,13.9,4.2,27.5,14.2,37.1l-0.3,0.6
		l0,0c-3.7,7.7-10,19-16.7,30.9c-6.4,11.4-13,23.2-18.1,33.2l-1.2-21l-1.6-28.2c-1.1-18-2-34.4-2.6-44.8c19.3-6.6,32-25.1,31.3-45.5
		c-1-23.7-19.6-43-43.3-44.7c-1,0-2.1,0-3.1,0c-25.6,0-46.4,20.8-46.4,46.5c0.1,15.1,7.4,29.2,19.7,37.9l-12.2,35.2
		c-7.8,22.5-14.2,40.7-19.1,54.8c-4.1-22.7-10-55.8-18.1-101.9l-0.7-4.2c23.2-10.8,33.3-38.4,22.5-61.7c-6-12.9-17.6-22.4-31.5-25.6
		l-0.1-1.2H360L360.1,132.6z"/>
</g>
</svg>
