<?xml version="1.0" encoding="utf-8"?>
<!-- Generator: Adobe Illustrator 18.1.0, SVG Export Plug-In . SVG Version: 6.00 Build 0)  -->
<svg version="1.1" id="Artwork" xmlns="http://www.w3.org/2000/svg" xmlns:xlink="http://www.w3.org/1999/xlink" x="0px" y="0px"
	 viewBox="0 0 720 720" enable-background="new 0 0 720 720" xml:space="preserve">
<g>
	<path fill="#FFFFFF" d="M425.4,579.9h-162h-77c-8.8,0-8.8,0-10.5-1.9l-1.6-1.7V574c0-4.7,4.3-25.5,8.1-31.4
		c4.7-7.3,16.1-13.4,45.1-24.3c8.1-2.9,15.8-6.7,23.1-11.2c-8.8-9.9-18.7-18.8-29.5-26.5c-6.3-4.7-10.5-8-12.6-11.4
		c-1.5-2.5-2.3-6.7-1.8-19l-2-32c-5.1-83.5,32.5-164,99.9-213.6l20-14.7c0.1-32.8,30.3-45.4,46.8-47.5l8.1-1l-1.6,7.9
		c-1.6,7.8-2.6,15.6-2.9,23.6c5.4-0.5,10.9-0.8,16.3-0.8c18,0,43.9,3.2,64.9,18.4c4.2,3,3.8,6.7-3.8,22.4
		c26.4,20.6,27.3,29.6,27.7,32.7c0.6,6.8,0.6,13.7-0.2,20.5c7.8,13.2,13.5,23.9,17.2,31.7c5,10.9,11.7,18.1,18,25
		c9.2,10,17.8,19.5,19.5,37.1c0.6,6.1-7.2,16.7-23,31.6c-2.9,3.8-8.4,9.8-14.2,9.8c-0.5,0-1,0-1.5-0.1c-3.7-0.8-7.5-1.3-11.3-1.6
		c-1.4-0.1-2.7-0.3-4-0.7l-1,1.3c-2,2.5-5,3.8-8.1,3.6c-7.7,0-19.8-6.3-26.4-13.7c-3.9-4.3-5.6-8.6-5.2-12.8
		c0.7-6.5-3.9-12.5-5.1-14l-11.2-8.4c1,11.2,2.1,22.6,3.1,33.7c0.3,3,2.3,4.3,10.5,8.4c7.1,3.4,13.8,7.4,20.2,11.9l0.3,0.2l0.3,0.3
		c36.1,33.7,37.6,70.9,38.9,103.7c0.1,2.5,0.2,4.9,0.3,7.4c25.1,9.7,35.3,15.4,39.7,22.2c3.8,5.8,8,26.7,8,31.4v0.4
		c-0.4,5.5-5.6,5.5-8.1,5.5L425.4,579.9L425.4,579.9z M225.1,559.3c-0.2,0-0.4,0.2-0.4,0.4c0,0.2,0.2,0.4,0.4,0.4c0,0,0,0,0,0h269.3
		c0.2,0,0.4-0.2,0.4-0.4c0-0.2-0.2-0.4-0.4-0.4c0,0,0,0,0,0H225.1z M262.1,536.6c-0.2,0-0.4,0.2-0.4,0.4c0,0.2,0.2,0.4,0.4,0.4
		h195.1c0.2,0,0.4-0.2,0.4-0.4c0-0.2-0.2-0.4-0.4-0.4c0,0,0,0,0,0H262.1z M451.6,259.7c1,0.3,1.9,0.7,2.8,1.1
		c-0.1-0.7-0.5-1.3-1-1.6l-3-1.3C450.7,258.6,451.1,259.2,451.6,259.7z"/>
	<path fill="#231F20" d="M372.3,148.4c0,0-6.2,31-0.8,31h0.2c6.6-0.8,13.2-1.3,19.8-1.3c18.4,0,42.2,3.3,61.5,17.3
		c1.2,0.9-4.7,13.2-7.7,19.4c11.4,8.6,28.2,22.7,29.2,31.6c0.6,7,0.5,14-0.4,21c7,12,13.7,23.9,17.9,32.9
		c12.7,27.4,34.4,32.9,37,60.2c0.6,6.4-21.6,27.2-21.6,27.2s-5.9,7.8-9.8,7.8H497c-4-0.8-8-1.4-12.1-1.6c-2.2,0.1-4.4-1-5.6-2.8
		l-4.3,5.7c-0.9,1-2.2,1.4-3.5,1.3c-8.4,0-26.7-11.3-25.8-20c1.1-10.3-7-18.9-7-18.9l-22-16.6c0.2,2.9,0.4,5.2,0.5,6.8
		c1.2,13.1,2.3,26.8,3.7,39.9c1.2,10.8,13.6,10.5,33.2,24.5c38.3,35.8,35.6,75.3,37.6,110.8c25.5,9.7,36.7,15.5,40.5,21.3
		c2.9,4.4,7,24.1,7,28.2c0.4,0-50.1,0-113.5,0c-105,0-245.4,0-245.4,0c0-4.1,4.3-23.8,7.2-28.2c3.9-5.9,15.5-11.9,42.3-22
		c10.5-3.8,20.5-8.9,29.6-15.4c-19.1-24.5-41.7-35.5-45.7-42.2c-1.1-1.9-1.4-7.7-1-16l-2-32.3c-5-81.6,31.7-160.1,97.5-208.6
		l22.5-16.5c-2.1-39.1,41.7-44.6,41.7-44.6 M458.9,273.4c0,0,5.1-15.8-3.3-19.5c-8.4-3.7-10.7-4.7-12.6-6.5c0,0-0.2-0.1-0.2-0.1
		c-1.4,0,0.6,16.3,6.7,18C453.6,266.6,457,269.5,458.9,273.4 M262,543.2h195.1c3.4,0,6.2-2.8,6.2-6.2c0-3.4-2.8-6.2-6.2-6.2
		c0,0,0,0-0.1,0H262c-3.4,0-6.2,2.8-6.2,6.2C255.9,540.4,258.6,543.2,262,543.2 M224.9,565.8h269.4c3.4,0,6.2-2.8,6.2-6.2
		c0-3.4-2.8-6.2-6.2-6.2c0,0,0,0-0.1,0H225.1c-3.4,0-6.2,2.8-6.2,6.2C218.8,563,221.6,565.8,224.9,565.8c0.1,0,0.1,0,0.1,0
		 M386.9,134.7l-16.1,2c-17.8,2.3-50,15.6-51.9,50.2l-17.7,13c-69,50.8-107.5,133.1-102.3,218.6l1.9,31.7c-0.6,13.7,0.5,18.4,2.7,22
		c2.7,4.4,7.2,7.8,14,13c8.5,6.1,16.5,13,23.8,20.4c-5.2,2.7-10.5,5-15.9,7c-30.7,11.5-42.4,18-48,26.5c-4.7,7-9.1,29.1-9.1,34.6
		v4.7l3.3,3.4c3.4,3.6,5.6,3.6,14.6,3.6h352.2c6.4,0.3,11.8-4.6,12.1-11l-1.4-11.2c-1.6-8.5-4.5-19.4-7.5-24
		c-5-7.7-14.8-13.6-39-23.1l-0.1-3.5c-1.3-32.7-2.8-69.5-36.7-103.8c1.8,0.4,3.6,0.6,5.5,0.7c4.2,0.1,8.3-1.4,11.3-4.3h1.5
		c3.6,0.2,7.1,0.7,10.6,1.5c0.9,0.1,1.7,0.2,2.6,0.2c7.7,0,14.2-6.2,18.5-11.7c25.7-24.2,24.9-32.2,24.5-36.1
		c-1.9-19.5-11.7-30.2-21-40.4c-6.3-7-12.3-13.5-17-23.5c-3.5-7.6-9.1-17.9-16.3-30.5c0.7-6.6,0.7-13.2,0-19.8
		c-0.7-6.5-4.5-16.1-26.2-33.7c0.6-1.3,1.1-2.5,1.6-3.7c2.5-5.9,6.7-15.7-1.6-21.8c-22.2-16.1-49.5-19.5-68.3-19.5
		c-3.4,0-6.8,0-10.2,0.3c0.5-4.7,1.4-10.6,2.3-16.1l3.2-15.9L386.9,134.7z M432.5,387.7c-0.6-6.6-1.3-13.4-1.9-20.2l0,0
		c2.1,2.6,3.3,5.8,3.4,9.1c-0.4,5.1,1.1,10.2,4.2,14.3C436.2,390,434.2,388.9,432.5,387.7L432.5,387.7z"/>
</g>
</svg>
