<?xml version="1.0" encoding="utf-8"?>
<!-- Generator: Adobe Illustrator 18.1.0, SVG Export Plug-In . SVG Version: 6.00 Build 0)  -->
<svg version="1.1" id="Artwork" xmlns="http://www.w3.org/2000/svg" xmlns:xlink="http://www.w3.org/1999/xlink" x="0px" y="0px"
	 viewBox="0 0 720 720" enable-background="new 0 0 720 720" xml:space="preserve">
<g>
	<path fill="#FFFFFF" d="M195.5,577.9c-17.5,0-17.5,0-19.3-2l-1.4-1.6V572c0-4.7,4.3-25.5,8.1-31.4c2.9-4.5,8.3-8.5,18.4-13.3
		c-7.1-8.4-6-21,2.5-28c0.6-0.5,1.3-1,1.9-1.4c0-2-1.4-47.2-1.4-47.2l-18.1-17.3c-31.8-30.3-46.7-52.8-51.3-77.6
		c-6.2-33.4,16.3-72.8,51.3-89.5c14-7.2,29.6-10.9,45.3-10.6c2.7,0,5.6,0,8.8,0.2c13.2,0.4,26.1,3.1,38.3,8.1
		c10.7,4.4,22.2,6.7,33.8,6.7l0.3,5.8v-5.8c11.7-0.3,20.9-9.9,20.7-21.6v-18.1H295v-50.1h38.4v-38.4h53.4v38.4h38.4v50.1h-38.4v18.1
		c-0.1,11.7,9.1,21.3,20.7,21.6l0.3,5.8v-5.8c11.4,0,22.6-2.2,33.1-6.6c12.4-5.1,25.6-7.9,39-8.3c3.2-0.2,6-0.2,8.7-0.2
		c15.8-0.3,31.3,3.3,45.3,10.6c35,16.7,57.4,56,51.2,89.5c-4.7,24.8-19.4,47.2-51.3,77.6l-18.1,17.3c0,0-1.3,45.2-1.4,47.2
		c9.2,6,11.8,18.3,5.9,27.5c-0.4,0.7-0.9,1.3-1.4,1.9c10.1,4.8,15.5,8.8,18.4,13.3c3.8,5.7,8,26.7,8,31.4v0.4
		c-0.3,5.5-5.6,5.5-8.1,5.5H358.3L195.5,577.9z M225.4,535.1c-1.2-0.1-2.2,0.7-2.3,1.9c-0.1,1.2,0.7,2.2,1.9,2.3c0.1,0,0.3,0,0.4,0
		h269.3c1.2,0.1,2.2-0.7,2.3-1.9c0.1-1.2-0.7-2.2-1.9-2.3c-0.1,0-0.3,0-0.4,0H225.4z M237.6,512.5c-1.2,0-2.1,0.9-2.1,2.1
		c0,1.2,0.9,2.1,2.1,2.1c0,0,0,0,0,0h244.8c1.2,0,2.1-1,2.1-2.1c0-1.2-0.9-2.1-2.1-2.1H237.6z M486,426.1
		c11.2-10,76.7-71.5,48.2-111.6c-10.4-14.6-26.1-22-46.7-22c-4.7,0-9.5,0.4-14.2,1.1c-29.1,3.8-54.4,21.9-67.4,48.2
		c-9.9,20.6-9.5,40.6-8.9,68.2c0,5.2,0.2,10.5,0.2,16.1L486,426.1z M322.8,426.1c0-5.6,0.1-10.9,0.2-16.1
		c0.5-27.7,0.9-47.6-8.9-68.2c-13-26.3-38.3-44.4-67.4-48.2c-4.7-0.7-9.4-1-14.2-1.1c-20.6,0-36.3,7.4-46.7,22
		c-28.5,40.1,37,101.6,48.2,111.6L322.8,426.1z"/>
	<path fill="#231F20" d="M380.9,148.5v38.4h38.4v38.4h-38.4v23.9c-0.1,14.9,11.7,27.1,26.5,27.4h0.3c12.1,0,24.1-2.4,35.4-7
		c11.8-4.9,24.3-7.5,37.1-7.8c3-0.1,5.8-0.2,8.4-0.2c14.9-0.3,29.6,3.1,42.8,10c32.7,15.6,53.7,52.2,48,83.1
		c-4.3,23.6-18.7,44.9-49.6,74.5l-19.8,19l-1.3,43.2c-0.1,3.6-0.2,7-0.3,10c7.3,2.6,11.1,10.6,8.5,17.9c-1.6,4.4-5.3,7.8-9.8,8.9
		v0.3c15,6.3,22.4,10.8,25.3,15.3s7,24.1,7,28.2c0.4,0-50.3,0-113.8,0h-70.5c-88.1,0-174.5,0-174.5,0c0-4.1,4.3-23.8,7.2-28.2
		c2.9-4.4,10.2-9,25.2-15.3c0-0.1,0-0.2,0-0.4c-7.5-1.9-12.1-9.4-10.2-16.9c1.1-4.6,4.5-8.3,8.9-9.8c0-3.1-0.2-6.4-0.3-10l-1.3-43.2
		l-19.8-19c-31-29.5-45.2-50.9-49.6-74.5c-5.7-31,15.4-67.5,48-83.1c13.2-6.9,27.9-10.3,42.8-10c2.7,0,5.5,0,8.5,0.2
		c12.5,0.4,24.8,3,36.4,7.7c11.4,4.6,23.7,7,36,7h0.3c14.9-0.4,26.7-12.6,26.5-27.4v-23.9h-38.5v-38.4h38.4v-38.4h41.7 M391.4,432
		h96.8c0,0,85.2-72.4,50.8-120.8c-13.3-18.7-32.7-24.4-51.3-24.4c-5,0-10,0.4-15,1.1c-31,4.1-57.9,23.3-71.8,51.3
		c-13,27.1-9.3,52.5-9.3,92.6 M231.9,431.8h96.9c0-40.1,3.7-65.6-9.3-92.6c-13.9-28-40.8-47.3-71.8-51.3c-5-0.7-10-1.1-15-1.1
		c-18.7,0-38.2,5.7-51.3,24.4C146.8,359.6,232,432,232,432 M237.7,522.4h244.8c4.4,0,8-3.5,8-7.9c0-4.4-3.5-8-7.9-8c0,0,0,0-0.1,0
		H237.7c-4.4,0-7.9,3.6-7.9,8C229.8,518.9,233.3,522.4,237.7,522.4 M225.5,545.1h269.3c4.4,0.2,8.1-3.1,8.4-7.5
		c0.2-4.4-3.1-8.1-7.5-8.4c-0.3,0-0.6,0-0.9,0H225.4c-4.4-0.2-8.1,3.1-8.4,7.5c-0.2,4.4,3.1,8.1,7.5,8.4c0.3,0,0.6,0,0.9,0
		 M392.5,136.6h-65V175h-38.4v61.8h38.4V249c0.2,8.5-6.5,15.5-15,15.8h-0.1c-10.8,0-21.6-2.1-31.6-6.3c-12.8-5.3-26.5-8.2-40.3-8.6
		c-3.2-0.2-6.2-0.2-9-0.2c-16.6-0.3-33.1,3.5-47.9,11.1c-18.2,8.9-33.3,23-43.5,40.5c-10.3,17.9-14.2,37.6-11,55.3
		c4.8,26.1,20.2,49.5,53,80.8l16.3,15.7l1.1,38.4c0,1.1,0,2.3,0,3.3c-8.7,7.4-11.4,19.6-6.8,30c-7.6,4.1-12.1,8-15,12.4
		c-4.7,7-9.1,29.1-9.1,34.6v4.7l3.3,3.4c3.4,3.5,6.6,3.5,12.3,3.5h354.5c6.4,0.3,11.8-4.6,12.1-11l-1.4-11.2
		c-1.6-8.5-4.5-19.4-7.5-24c-3-4.6-7.4-8.3-15.1-12.4c4.6-10.4,1.8-22.6-6.8-29.9c0-1.1,0-2.2,0.1-3.3l1.1-38.4l16.3-15.7
		c32.8-31.3,48.2-54.7,53-80.8c3.3-17.7-0.6-37.3-11-55.3c-10.1-17.5-25.3-31.7-43.5-40.5c-14.8-7.6-31.2-11.4-47.9-11.1
		c-2.8,0-5.7,0-9,0.2c-14.1,0.4-28,3.3-41,8.7c-9.8,4.1-20.3,6.1-30.9,6.1h-0.2c-8.5-0.3-15.1-7.3-14.9-15.8v-12.2h38.4V175h-38.4
		L392.5,136.6L392.5,136.6z M403,420.2c0-3.5,0-7-0.2-10.3c-0.5-27.9-0.9-46.3,8.4-65.6c12.2-24.6,35.8-41.5,63-45
		c4.4-0.7,8.9-1,13.4-1c18.9,0,32.7,6.4,42,19.5c24.2,34-31.7,89.4-45.7,102.4L403,420.2z M236.3,420.2c-14-13-70-68.4-45.7-102.4
		c9.3-13.1,23.1-19.5,42-19.5c4.5,0,8.9,0.3,13.4,1c27.2,3.5,50.8,20.4,63,45c9.3,19.3,8.9,37.7,8.4,65.6c0,3.4,0,6.8-0.2,10.3
		L236.3,420.2z"/>
</g>
</svg>
